<svg xmlns="http://www.w3.org/2000/svg" viewBox="0 0 264.67 379.31">
  <defs>
    <style>
      .cls-1 {
        isolation: isolate;
      }

      .cls-2 {
        fill: #e0e0e0;
      }

      .cls-11, .cls-15, .cls-3, .cls-7 {
        fill: #27debf;
      }

      .cls-10, .cls-12, .cls-13, .cls-16, .cls-20, .cls-22, .cls-4, .cls-5, .cls-6, .cls-8, .cls-9 {
        fill: #fff;
      }

      .cls-4 {
        opacity: 0.9;
      }

      .cls-5 {
        opacity: 0.8;
      }

      .cls-6 {
        opacity: 0.3;
      }

      .cls-16, .cls-6, .cls-8 {
        mix-blend-mode: lighten;
      }

      .cls-20, .cls-7 {
        opacity: 0.1;
      }

      .cls-10, .cls-8 {
        opacity: 0.5;
      }

      .cls-9 {
        opacity: 0.7;
      }

      .cls-11, .cls-13 {
        opacity: 0.2;
      }

      .cls-12, .cls-16 {
        opacity: 0.6;
      }

      .cls-14, .cls-19 {
        fill: #455a64;
      }

      .cls-14 {
        opacity: 0.05;
        mix-blend-mode: multiply;
      }

      .cls-15, .cls-21 {
        opacity: 0.15;
      }

      .cls-17 {
        fill: #263238;
      }

      .cls-18 {
        fill: #37474f;
      }

      .cls-22 {
        opacity: 0.35;
      }
    </style>
    <style>
      @-webkit-keyframes move {
        0% {
          transform:translate(0px,10px);
        }
        50% {
          transform:translate(0px,0px);
        }
        100% {
          transform:translate(0px,10px);
        }
      }

      @-webkit-keyframes moveInverse {
        0% {
          transform:translate(0px,0px);
        }
        50% {
          transform:translate(0px,2px);
        }
        100% {
          transform:translate(0px,0px);
        }
      }

      @-webkit-keyframes moveOffset {
        0% {
          transform:translate(0px,5px);
        }
        50% {
          transform:translate(0px,-2px);
        }
        100% {
          transform:translate(0px,5px);
        }
      }

      @-webkit-keyframes refill {
        0% {
          fill-opacity:0%;
        }
        50% {
          fill-opacity:100%;
        }
        100% {
          fill-opacity:0%;
        }
      }

      .shine-1 {
        fill-opacity:0%;
        animation-name: refill;
        animation-duration:2s;
        animation-iteration-count: infinite;
        animation-timing-function:ease-in-out;
      }

      .shine-2 {
        fill-opacity:0%;
        animation-name: refill;
        animation-duration:2s;
        animation-delay:1s;
        animation-iteration-count: infinite;
        animation-timing-function:ease-in-out;
      }

      .shine-3 {
        fill-opacity:0%;
        animation-name: refill;
        animation-duration:2s;
        animation-delay:2s;
        animation-iteration-count: infinite;
        animation-timing-function:ease-in-out;
      }
      
      .shine-4 {
        fill-opacity:0%;
        animation-name: refill;
        animation-duration:2s;
        animation-delay:3s;
        animation-iteration-count: infinite;
        animation-timing-function:ease-in-out;
      }

      .move {
        animation-name: move;
        animation-duration:2s;
        animation-iteration-count: infinite;
        animation-timing-function:ease-in-out;
      }

      .move-offset {
        animation-name: moveOffset;
        animation-duration:2s;
        animation-iteration-count: infinite;
        animation-timing-function:ease-in-out;
      }

      .move-inverse {
        animation-name: moveInverse;
        animation-duration:2s;
        animation-iteration-count: infinite;
        animation-timing-function:ease-in-out;
      }
      
    </style>
  </defs>
  <g class="cls-1">
    <g id="Layer_2" data-name="Layer 2">
      <g id="Shadows" class="move-inverse">
        <path id="Shadow" class="cls-2" d="M264.66,338.94c0-.26,0-.51-.06-.76,0-.07,0-.14,0-.21s-.06-.37-.1-.54l-.06-.2a3.24,3.24,0,0,0-.16-.53,1.15,1.15,0,0,0-.06-.17c-.07-.18-.14-.36-.22-.53l-.06-.12-.3-.55-.05-.08c-.12-.19-.24-.37-.38-.55l0,0c-.14-.19-.3-.37-.46-.55h0a7.34,7.34,0,0,0-2.2-1.62h0c-.23-.11-.47-.21-.71-.3l-.06,0L259,332l-.13,0c-.21-.05-.43-.08-.64-.11l-.17,0a7.55,7.55,0,0,0-4.37.87c0-.1-.07-.2-.1-.3l-.11-.27c-.11-.3-.23-.6-.37-.89l-.1-.2c-.15-.31-.32-.61-.49-.91l-.08-.12c-.2-.32-.41-.62-.63-.92l0-.06c-.24-.31-.49-.61-.76-.9l0,0a12,12,0,0,0-3.65-2.69h0a9.63,9.63,0,0,0-1.19-.5l-.1,0c-.36-.12-.74-.23-1.12-.33l-.21-.05c-.35-.08-.71-.14-1.07-.19l-.28,0a11.94,11.94,0,0,0-1.35-.08,12.28,12.28,0,0,0-12,9.69,16.71,16.71,0,0,0-3.67-2.4h0c-.51-.24-1-.46-1.56-.65l-.27-.1-1-.32-.82-.2-.56-.12c-.42-.08-.85-.14-1.28-.19l-.31,0c-.5,0-1-.07-1.51-.07a16.9,16.9,0,0,0-16.56,13.64c-.22-.33-.45-.65-.68-1l-.19-.23a18.43,18.43,0,0,0-1.21-1.44l-.06-.07a20,20,0,0,0-1.48-1.43h0a21.07,21.07,0,0,0-6.68-4l-.33-.11c-.42-.15-.85-.28-1.28-.4l-1-.26-.69-.14c-.52-.1-1-.18-1.58-.23l-.39,0c-.62,0-1.24-.09-1.87-.09a20.94,20.94,0,0,0-20.9,19.8l-.05-.05,0,0a19.12,19.12,0,0,0-5.7-4.2h0a18.41,18.41,0,0,0-1.77-.75l-.3-.1c-.38-.14-.77-.26-1.17-.37l-.92-.23-.64-.13c-.47-.09-.95-.16-1.44-.22l-.36,0c-.56-.05-1.12-.08-1.7-.08a19.14,19.14,0,0,0-19.13,18.61c0,.18,0,.35,0,.53s0,.35,0,.54,0,.28.07.42l-.15,0-.13,0a4.64,4.64,0,0,0-.65-.11l-.16,0a7.37,7.37,0,0,0-.82-.05,7.45,7.45,0,0,0-3.42.84,18.19,18.19,0,0,0-18.19-17.69c-.54,0-1.08,0-1.62.08l-.34,0c-.46.05-.92.12-1.37.2l-.6.13c-.3.06-.59.14-.88.22s-.75.22-1.11.35l-.28.1a16.75,16.75,0,0,0-1.69.71h0c-.27.13-.54.25-.8.39a3.62,3.62,0,0,0,0-.46A21,21,0,0,0,77.79,332q-.95,0-1.86.09l-.39,0c-.54.06-1.06.14-1.58.24l-.7.14-1,.26-.14,0A17.78,17.78,0,0,0,54.46,317.2c-.53,0-1.06,0-1.58.08l-.33,0a11.69,11.69,0,0,0-1.34.2,5.6,5.6,0,0,0-.59.12c-.3.06-.58.14-.87.22s-.72.21-1.08.33l-.28.1c-.56.21-1.11.44-1.64.69h0a17.84,17.84,0,0,0-4,2.68h0a16.42,16.42,0,0,0-1.27,1.23l0,0c-.39.42-.75.85-1.1,1.31l-.07.09c-.32.43-.62.87-.91,1.33a1.74,1.74,0,0,0-.11.18q-.39.65-.72,1.32c0,.1-.1.19-.14.28-.17.36-.32.73-.47,1.1h0c-.51,0-1,0-1.5.07l-.32,0c-.42,0-.84.11-1.25.18A12.21,12.21,0,0,0,21.29,318L21,318c-.36.05-.71.11-1.07.19l-.2.05a10.51,10.51,0,0,0-1.13.33l-.1,0c-.4.14-.8.31-1.19.49h0a12.13,12.13,0,0,0-3.65,2.69l0,0c-.26.29-.52.59-.76.9l0,.06a9.36,9.36,0,0,0-.63.92l-.08.12c-.18.3-.34.6-.5.91l-.09.2c-.14.29-.26.59-.38.89l-.1.27c0,.1-.07.2-.1.3a7.2,7.2,0,0,0-4.37-.87l-.17,0c-.22,0-.43.06-.65.11l-.12,0-.68.2-.06,0a7.76,7.76,0,0,0-.72.3h0a7.35,7.35,0,0,0-1.68,1.12h0c-.18.16-.36.33-.53.51v0c-.16.17-.31.35-.46.54l0,0a5.28,5.28,0,0,0-.37.55.35.35,0,0,0-.05.08,5.7,5.7,0,0,0-.3.54l-.06.13c-.08.17-.16.35-.23.53l-.06.17c-.06.17-.11.35-.16.53a1.33,1.33,0,0,0-.05.19,5.35,5.35,0,0,0-.11.55l0,.2a5,5,0,0,0-.06.77,1.48,1.48,0,0,0,0,.21,1.55,1.55,0,0,0,0,.21,3.8,3.8,0,0,0,2.16,2.82A11.39,11.39,0,0,0,9,337.08h0c.38,0,.76-.12,1.13-.2l.37-.1a7.27,7.27,0,0,0,.83-.25l.35-.12a9.8,9.8,0,0,0,1-.49c.18-.1.34-.21.49-.31l0,0a3.65,3.65,0,0,0,.37-.29h0l.22-.21.16.1a18.05,18.05,0,0,0,9.16,2.06q-.2.36-.36.72c-.05.09-.1.18-.14.27-.19.4-.36.82-.51,1.23l-.15.37c-.14.4-.25.8-.36,1.21,0,.15-.09.3-.13.45-.09.41-.17.83-.23,1.26,0,.15-.06.3-.08.45a14.57,14.57,0,0,0-.14,1.75,5.53,5.53,0,0,0,0,.94c.19,2.34,1.84,4.63,4.92,6.43,4.19,2.42,10,3.29,15.43,2.64h0c.72-.09,1.43-.2,2.12-.35l.29-.05c.71-.15,1.4-.33,2.08-.54h0c.62-.19,1.22-.42,1.8-.66l.43-.18a18.15,18.15,0,0,0,1.71-.85c.39-.23.76-.46,1.1-.7l.16-.13a8.63,8.63,0,0,0,.81-.62l.05,0a10.49,10.49,0,0,0,1.46-1.55h0a6.49,6.49,0,0,0,1.36-3.39,3.7,3.7,0,0,0,0-.47c0-.05,0-.1,0-.15a30.69,30.69,0,0,0,3.33-.21h0l.27,0c-.14.34-.28.69-.4,1l-.16.49c-.16.51-.31,1-.44,1.56,0,.11,0,.23-.07.34-.13.58-.23,1.17-.31,1.76,0,.06,0,.13,0,.19-.08.64-.13,1.3-.15,2a5.82,5.82,0,0,0,0,.59,5.62,5.62,0,0,0,0,.58c.24,2.9,2.28,5.75,6.11,8,5.21,3,12.45,4.08,19.15,3.28h0l.12,0c.75-.09,1.5-.21,2.23-.36l.76-.15.86-.2.94-.25.65-.19c.51-.15,1-.32,1.48-.5l.52-.2.67-.27s0,.09,0,.14c-.15.43-.27.87-.39,1.31,0,.16-.1.32-.14.48-.1.44-.18.89-.25,1.34,0,.17-.07.33-.09.5q-.12.93-.15,1.89c0,.17,0,.33,0,.51s0,.33,0,.5c.21,2.52,2,5,5.31,6.93,5.12,2.95,12.52,3.77,18.92,2.47l.3-.06c.76-.16,1.51-.35,2.24-.57l0,0c.67-.21,1.32-.45,2-.71l.46-.19a19.73,19.73,0,0,0,1.84-.92c.42-.25.82-.5,1.19-.76l.15-.12,0,0a3,3,0,0,0,.56,1.22h0a4.47,4.47,0,0,0,.64.68l0,0,.36.27.07.06.48.3a6.63,6.63,0,0,0,1,.49l.34.13c.27.09.55.18.83.25l.37.1a10.42,10.42,0,0,0,1.14.19h0a11.35,11.35,0,0,0,6.8-1.16,3.82,3.82,0,0,0,2.16-2.82v-.41s0-.08,0-.12l0,0c.42.24.85.46,1.3.67l.41.2,1,.42.47.18c.44.16.89.32,1.35.46l.59.17.86.23.79.18.69.14c.65.13,1.31.23,2,.32l.18,0h0c6.11.74,12.73-.25,17.48-3,3.49-2,5.36-4.63,5.58-7.28,0-.19,0-.35,0-.54s0-.35,0-.53c0-.67-.08-1.33-.16-2,0-.18-.06-.35-.09-.52-.06-.39-.12-.78-.21-1.16l.13.1c.42.3.88.59,1.36.87s.94.5,1.42.74l.46.21,1.08.46.51.2c.49.18,1,.35,1.48.51l.66.18.93.25.87.2.75.15c7.3,1.41,15.68.45,21.5-2.9,3.83-2.23,5.88-5.08,6.11-8a5.62,5.62,0,0,0,0-.58,5.82,5.82,0,0,0,0-.59c0-.56-.05-1.11-.11-1.66l0,0,.11.08c.35.24.71.48,1.1.7a18.15,18.15,0,0,0,1.71.85l.43.19c.59.24,1.19.46,1.81.66h0c.67.21,1.37.38,2.07.53l.29.06c5.93,1.2,12.8.44,17.55-2.3,3.09-1.79,4.74-4.09,4.93-6.42,0-.17,0-.31,0-.48s0-.3,0-.47c0-.59-.07-1.17-.14-1.75,0-.15-.06-.3-.08-.46-.07-.42-.14-.84-.24-1.24l-.09-.35.84.29h0c.49.15,1,.28,1.51.39l.21,0c4.31.87,9.29.32,12.74-1.67l.16-.1a5.82,5.82,0,0,0,.64.53l0,0,.48.31a9.1,9.1,0,0,0,1,.49l.34.12a7.93,7.93,0,0,0,.83.25l.37.1c.38.08.75.15,1.14.2h0a11.42,11.42,0,0,0,6.8-1.15,3.85,3.85,0,0,0,2.16-2.82,2.21,2.21,0,0,0,0-.42Z"/>
      </g>
      <g id="Rocket">
        <g id="Rocket-2" data-name="Rocket">
          <g class="move-inverse">
            <path class="cls-3" d="M187.72,340.54c0,13.43-26.57,24.32-59.34,24.32S69,354,69,340.54s26.57-24.33,59.34-24.33S187.72,327.11,187.72,340.54Z"/>
            <path class="cls-3" d="M187.72,340.54c0,13.43-26.57,24.32-59.34,24.32S69,354,69,340.54s26.57-24.33,59.34-24.33S187.72,327.11,187.72,340.54Z"/>
            <ellipse class="cls-4" cx="128.38" cy="340.54" rx="64.2" ry="26.32"/>
            <g>
              <path class="cls-3" d="M67.94,319a26.37,26.37,0,0,1,52.72,0c0,.25,0,.48,0,.74s0,.48,0,.73c-.3,3.65-2.87,7.23-7.72,10-10.28,5.95-27,5.95-37.31,0-4.82-2.8-7.39-6.38-7.69-10,0-.25,0-.48,0-.73S67.92,319.22,67.94,319Z"/>
              <path class="cls-5" d="M67.94,319a26.37,26.37,0,0,1,52.72,0c0,.25,0,.48,0,.74s0,.48,0,.73c-.3,3.65-2.87,7.23-7.72,10-10.28,5.95-27,5.95-37.31,0-4.82-2.8-7.39-6.38-7.69-10,0-.25,0-.48,0-.73S67.92,319.22,67.94,319Z"/>
              <path class="cls-6" d="M82.86,296h0a26.34,26.34,0,0,1,37.8,23c0,.25,0,.48,0,.74s0,.48,0,.73c-.3,3.65-2.87,7.23-7.72,10a34.89,34.89,0,0,1-13.23,4.13c6.84-1.18,11.27-8.82,9.17-17.25C106.44,307.57,96.55,293.43,82.86,296Z"/>
              <path class="cls-7" d="M67.94,320.44c0-.25,0-.48,0-.73s0-.49,0-.74a26.23,26.23,0,0,1,9-19.05c-2.86,2.94-9.23,14-2.31,22.5,4.55,5.57,26.17,13.51,44,3.31a18.29,18.29,0,0,1-5.6,4.74c-10.28,5.95-27,5.95-37.31,0C70.81,327.67,68.24,324.09,67.94,320.44Z"/>
              <path class="cls-8" d="M94.57,299.27c-1.18,2.69,1.08,6.28,5.06,8s8.16,1,9.34-1.7-1.09-6.29-5.06-8S95.75,296.58,94.57,299.27Z"/>
              <path class="cls-8" d="M109.84,310.21c-.61,1.4.28,3.14,2,3.9s3.61.23,4.22-1.17-.27-3.15-2-3.9S110.45,308.81,109.84,310.21Z"/>
            </g>
            <g>
              <path class="cls-3" d="M178.16,318.56a22.39,22.39,0,0,0-44.77,0c0,.22,0,.41,0,.63s0,.41,0,.62c.25,3.1,2.44,6.14,6.55,8.52,8.74,5.05,22.93,5.05,31.69,0,4.09-2.38,6.27-5.42,6.53-8.52,0-.21,0-.41,0-.62S178.18,318.78,178.16,318.56Z"/>
              <path class="cls-5" d="M178.16,318.56a22.39,22.39,0,0,0-44.77,0c0,.22,0,.41,0,.63s0,.41,0,.62c.25,3.1,2.44,6.14,6.55,8.52,8.74,5.05,22.93,5.05,31.69,0,4.09-2.38,6.27-5.42,6.53-8.52,0-.21,0-.41,0-.62S178.18,318.78,178.16,318.56Z"/>
              <path class="cls-6" d="M165.49,299h0a22.35,22.35,0,0,0-32.1,19.54c0,.22,0,.41,0,.63s0,.41,0,.62c.25,3.1,2.44,6.14,6.55,8.52a29.78,29.78,0,0,0,11.24,3.51c-5.81-1-9.57-7.49-7.79-14.65C145.47,308.88,153.86,296.87,165.49,299Z"/>
              <path class="cls-7" d="M178.16,319.81c0-.21,0-.41,0-.62s0-.41,0-.63a22.32,22.32,0,0,0-7.6-16.18c2.43,2.5,7.84,11.93,2,19.12-3.87,4.72-22.22,11.47-37.33,2.8a15.5,15.5,0,0,0,4.75,4c8.74,5.05,22.93,5.05,31.69,0C175.72,326,177.9,322.91,178.16,319.81Z"/>
              <path class="cls-8" d="M155.55,301.83c1,2.29-.93,5.34-4.31,6.82s-6.92.84-7.93-1.45.93-5.33,4.3-6.81S154.54,299.55,155.55,301.83Z"/>
              <path class="cls-8" d="M142.57,311.12a2.94,2.94,0,1,1-3.58-1A2.64,2.64,0,0,1,142.57,311.12Z"/>
            </g>
            <g>
              <path class="cls-3" d="M200,321.14a14.81,14.81,0,0,0-29.6,0,3,3,0,0,0,0,.42,2.82,2.82,0,0,0,0,.41c.16,2,1.61,4.06,4.33,5.63,5.78,3.34,15.16,3.34,20.95,0C198.41,326,199.85,324,200,322c0-.14,0-.27,0-.41S200,321.29,200,321.14Z"/>
              <path class="cls-4" d="M200,321.14a14.81,14.81,0,0,0-29.6,0,3,3,0,0,0,0,.42,2.82,2.82,0,0,0,0,.41c.16,2,1.61,4.06,4.33,5.63,5.78,3.34,15.16,3.34,20.95,0C198.41,326,199.85,324,200,322c0-.14,0-.27,0-.41S200,321.29,200,321.14Z"/>
              <path class="cls-8" d="M191.64,308.22h0a14.78,14.78,0,0,0-21.22,12.92,3,3,0,0,0,0,.42,2.82,2.82,0,0,0,0,.41c.16,2,1.61,4.06,4.33,5.63a19.7,19.7,0,0,0,7.43,2.32c-3.84-.66-6.33-4.95-5.15-9.69C178.4,314.74,184,306.8,191.64,308.22Z"/>
              <path class="cls-7" d="M200,322c0-.14,0-.27,0-.41s0-.27,0-.42a14.74,14.74,0,0,0-5-10.7c1.61,1.66,5.19,7.89,1.3,12.64-2.55,3.13-14.69,7.59-24.68,1.86a10.32,10.32,0,0,0,3.14,2.66c5.78,3.34,15.16,3.34,20.95,0C198.41,326,199.85,324,200,322Z"/>
              <path class="cls-8" d="M185.07,310.08c.66,1.51-.61,3.53-2.85,4.51s-4.58.55-5.24-1,.61-3.53,2.84-4.51S184.41,308.57,185.07,310.08Z"/>
              <path class="cls-8" d="M176.49,316.22a1.95,1.95,0,1,1-2.37-.65A1.75,1.75,0,0,1,176.49,316.22Z"/>
            </g>
            <g>
              <path class="cls-3" d="M231.56,327.58a20.12,20.12,0,0,0-40.23,0c0,.2,0,.37,0,.57s0,.36,0,.56c.23,2.78,2.19,5.52,5.89,7.65,7.85,4.54,20.61,4.54,28.47,0,3.68-2.13,5.65-4.87,5.87-7.65a5.33,5.33,0,0,0,0-.56A5.43,5.43,0,0,0,231.56,327.58Z"/>
              <path class="cls-9" d="M231.56,327.58a20.12,20.12,0,0,0-40.23,0c0,.2,0,.37,0,.57s0,.36,0,.56c.23,2.78,2.19,5.52,5.89,7.65,7.85,4.54,20.61,4.54,28.47,0,3.68-2.13,5.65-4.87,5.87-7.65a5.33,5.33,0,0,0,0-.56A5.43,5.43,0,0,0,231.56,327.58Z"/>
              <path class="cls-6" d="M220.18,310h0a20.1,20.1,0,0,0-28.85,17.56c0,.2,0,.37,0,.57s0,.36,0,.56c.23,2.78,2.19,5.52,5.89,7.65a26.67,26.67,0,0,0,10.1,3.15c-5.22-.9-8.6-6.73-7-13.16C202.19,318.88,209.73,308.09,220.18,310Z"/>
              <path class="cls-7" d="M231.56,328.71a5.33,5.33,0,0,0,0-.56,5.43,5.43,0,0,0,0-.57A20,20,0,0,0,224.73,313c2.19,2.25,7.05,10.72,1.77,17.18-3.48,4.25-20,10.31-33.55,2.52a14,14,0,0,0,4.27,3.62c7.85,4.54,20.61,4.54,28.47,0C229.37,334.23,231.34,331.49,231.56,328.71Z"/>
              <path class="cls-8" d="M211.24,312.55c.9,2.05-.83,4.79-3.86,6.13s-6.23.75-7.13-1.3.83-4.8,3.87-6.13S210.34,310.5,211.24,312.55Z"/>
              <path class="cls-8" d="M199.59,320.9a2.64,2.64,0,1,1-3.22-.9A2.38,2.38,0,0,1,199.59,320.9Z"/>
            </g>
          </g>
          <g class="move-offset">
            <path class="cls-3" d="M152.46,251A23.93,23.93,0,0,1,144,269.29a15.68,15.68,0,0,0-5.7,11.92v57.61c0,1.46-1,2.93-2.89,4a12.26,12.26,0,0,1-3.63,1.33,16.94,16.94,0,0,1-6.73,0,12.42,12.42,0,0,1-3.61-1.33c-1.93-1.11-2.9-2.58-2.9-4V281.1a15.49,15.49,0,0,0-5.66-11.78,23.93,23.93,0,0,1-8.52-18.54,24.07,24.07,0,0,1,48.13.19Z"/>
            <path class="cls-10" d="M152.46,251A23.93,23.93,0,0,1,144,269.29a15.68,15.68,0,0,0-5.7,11.92v57.61c0,1.46-1,2.93-2.89,4a12.26,12.26,0,0,1-3.63,1.33,16.94,16.94,0,0,1-6.73,0,12.42,12.42,0,0,1-3.61-1.33c-1.93-1.11-2.9-2.58-2.9-4V281.1a15.49,15.49,0,0,0-5.66-11.78,23.93,23.93,0,0,1-8.52-18.54,24.07,24.07,0,0,1,48.13.19Z"/>
            <path class="cls-3" d="M141.82,251a13.4,13.4,0,0,1-5.66,10.94,10.88,10.88,0,0,0-4.41,8.92v69.42a3.4,3.4,0,0,1-3.33,3.44h-.07a3.4,3.4,0,0,1-3.33-3.44V270.66a10.71,10.71,0,0,0-4.4-8.76A13.39,13.39,0,0,1,115,250.6a13.58,13.58,0,0,1,12.89-13A13.43,13.43,0,0,1,141.82,251Z"/>
            <path class="cls-9" d="M141.82,251a13.4,13.4,0,0,1-5.66,10.94,10.88,10.88,0,0,0-4.41,8.92v69.42a3.4,3.4,0,0,1-3.33,3.44h-.07a3.4,3.4,0,0,1-3.33-3.44V270.66a10.71,10.71,0,0,0-4.4-8.76A13.39,13.39,0,0,1,115,250.6a13.58,13.58,0,0,1,12.89-13A13.43,13.43,0,0,1,141.82,251Z"/>
            <circle class="cls-5" cx="140.58" cy="262.48" r="5.09"/>
            <path class="cls-9" d="M134.6,247.38a3.84,3.84,0,1,1,3.83,3.83A3.84,3.84,0,0,1,134.6,247.38Z"/>
            <path class="cls-5" d="M127.28,241.26a1.9,1.9,0,1,1,1.9,1.9A1.9,1.9,0,0,1,127.28,241.26Z"/>
            <path class="cls-9" d="M112.11,243.54a5.15,5.15,0,1,1,5.15,5.16A5.15,5.15,0,0,1,112.11,243.54Z"/>
            <path class="cls-5" d="M111.25,252.86a2.42,2.42,0,1,0,2.41-2.42A2.41,2.41,0,0,0,111.25,252.86Z"/>
            <path class="cls-9" d="M111.5,262.09a4.7,4.7,0,1,1,4.7,4.7A4.7,4.7,0,0,1,111.5,262.09Z"/>
            <path class="cls-9" d="M123.17,268.94a3.23,3.23,0,1,1,3.23,3.23A3.23,3.23,0,0,1,123.17,268.94Z"/>
            <path class="cls-9" d="M106.66,247.38a1.65,1.65,0,1,1,3.29,0,1.65,1.65,0,0,1-3.29,0Z"/>
            <path class="cls-5" d="M142.51,240.56a2.17,2.17,0,1,1,2.17,2.17A2.17,2.17,0,0,1,142.51,240.56Z"/>
            <path class="cls-9" d="M144.67,251.21a2.18,2.18,0,1,1,2.18,2.18A2.18,2.18,0,0,1,144.67,251.21Z"/>
            <path class="cls-5" d="M124.22,253.39a2.19,2.19,0,1,1,2.18,2.19A2.19,2.19,0,0,1,124.22,253.39Z"/>
          </g>
          <g class="move-inverse">
            <g>
              <path class="cls-3" d="M254.28,331.07a12.26,12.26,0,0,0-24.52,0c0,.12,0,.22,0,.34s0,.23,0,.34c.14,1.7,1.34,3.37,3.59,4.67,4.78,2.77,12.56,2.77,17.35,0,2.25-1.3,3.44-3,3.58-4.67,0-.11,0-.22,0-.34S254.29,331.19,254.28,331.07Z"/>
              <path class="cls-10" d="M254.28,331.07a12.26,12.26,0,0,0-24.52,0c0,.12,0,.22,0,.34s0,.23,0,.34c.14,1.7,1.34,3.37,3.59,4.67,4.78,2.77,12.56,2.77,17.35,0,2.25-1.3,3.44-3,3.58-4.67,0-.11,0-.22,0-.34S254.29,331.19,254.28,331.07Z"/>
              <path class="cls-8" d="M247.34,320.37h0a12.24,12.24,0,0,0-17.58,10.7c0,.12,0,.22,0,.34s0,.23,0,.34c.14,1.7,1.34,3.37,3.59,4.67a16.32,16.32,0,0,0,6.15,1.92c-3.18-.55-5.24-4.1-4.26-8C236.38,325.77,241,319.19,247.34,320.37Z"/>
              <path class="cls-11" d="M254.28,331.75c0-.11,0-.22,0-.34s0-.22,0-.34a12.21,12.21,0,0,0-4.16-8.86c1.33,1.37,4.29,6.53,1.07,10.47-2.11,2.58-12.17,6.28-20.44,1.53a8.55,8.55,0,0,0,2.6,2.21c4.78,2.77,12.56,2.77,17.35,0C253,335.12,254.14,333.45,254.28,331.75Z"/>
              <path class="cls-8" d="M241.9,321.91c.55,1.25-.51,2.92-2.36,3.73s-3.79.46-4.34-.79.5-2.92,2.35-3.74S241.35,320.66,241.9,321.91Z"/>
              <path class="cls-8" d="M234.79,327a1.61,1.61,0,1,1-2-.54A1.46,1.46,0,0,1,234.79,327Z"/>
            </g>
            <g>
              <path class="cls-3" d="M235.92,341.16a16.89,16.89,0,0,0-33.77,0c0,.17,0,.31,0,.47s0,.31,0,.48c.19,2.33,1.84,4.63,4.94,6.42,6.59,3.81,17.3,3.81,23.9,0,3.09-1.79,4.74-4.09,4.93-6.42,0-.17,0-.31,0-.48S235.93,341.33,235.92,341.16Z"/>
              <path class="cls-12" d="M235.92,341.16a16.89,16.89,0,0,0-33.77,0c0,.17,0,.31,0,.47s0,.31,0,.48c.19,2.33,1.84,4.63,4.94,6.42,6.59,3.81,17.3,3.81,23.9,0,3.09-1.79,4.74-4.09,4.93-6.42,0-.17,0-.31,0-.48S235.93,341.33,235.92,341.16Z"/>
              <path class="cls-8" d="M226.36,326.43h0a16.69,16.69,0,0,0-7.33-1.69,16.89,16.89,0,0,0-16.88,16.42c0,.17,0,.31,0,.47s0,.31,0,.48c.19,2.33,1.84,4.63,4.94,6.42a22.63,22.63,0,0,0,8.48,2.65c-4.38-.76-7.22-5.65-5.87-11.05C211.26,333.86,217.59,324.81,226.36,326.43Z"/>
              <path class="cls-7" d="M235.92,342.11c0-.17,0-.31,0-.48s0-.3,0-.47a16.82,16.82,0,0,0-5.74-12.2c1.84,1.89,5.92,9,1.48,14.42-2.91,3.56-16.76,8.65-28.15,2.11a11.71,11.71,0,0,0,3.58,3c6.59,3.81,17.3,3.81,23.9,0C234.08,346.74,235.73,344.44,235.92,342.11Z"/>
              <path class="cls-6" d="M218.86,328.55c.76,1.72-.69,4-3.24,5.14s-5.23.63-6-1.09.69-4,3.24-5.15S218.11,326.82,218.86,328.55Z"/>
              <path class="cls-6" d="M209.08,335.55a2.22,2.22,0,1,1-2.7-.75A2,2,0,0,1,209.08,335.55Z"/>
            </g>
            <g>
              <path class="cls-3" d="M206,349.38a21,21,0,0,0-41.9,0,5.82,5.82,0,0,0,0,.59,5.62,5.62,0,0,0,0,.58c.24,2.9,2.28,5.75,6.13,8,8.18,4.72,21.47,4.72,29.66,0,3.83-2.23,5.88-5.08,6.11-8a5.62,5.62,0,0,0,0-.58A5.82,5.82,0,0,0,206,349.38Z"/>
              <path class="cls-5" d="M206,349.38a21,21,0,0,0-41.9,0,5.82,5.82,0,0,0,0,.59,5.62,5.62,0,0,0,0,.58c.24,2.9,2.28,5.75,6.13,8,8.18,4.72,21.47,4.72,29.66,0,3.83-2.23,5.88-5.08,6.11-8a5.62,5.62,0,0,0,0-.58A5.82,5.82,0,0,0,206,349.38Z"/>
              <path class="cls-6" d="M194.11,331.09h0a20.94,20.94,0,0,0-30.05,18.29,5.82,5.82,0,0,0,0,.59,5.62,5.62,0,0,0,0,.58c.24,2.9,2.28,5.75,6.13,8a28.17,28.17,0,0,0,10.52,3.28c-5.44-.94-9-7-7.28-13.71C175.36,340.32,183.23,329.08,194.11,331.09Z"/>
              <path class="cls-7" d="M206,350.55a5.62,5.62,0,0,0,0-.58,5.82,5.82,0,0,0,0-.59,20.8,20.8,0,0,0-7.11-15.14c2.28,2.34,7.34,11.16,1.84,17.89-3.62,4.42-20.8,10.74-34.94,2.62a14.62,14.62,0,0,0,4.44,3.78c8.18,4.72,21.47,4.72,29.66,0C203.68,356.3,205.73,353.45,206,350.55Z"/>
              <path class="cls-6" d="M184.8,333.72c.94,2.14-.86,5-4,6.39s-6.48.78-7.42-1.36.87-5,4-6.38S183.86,331.59,184.8,333.72Z"/>
              <path class="cls-6" d="M172.66,342.42a2.75,2.75,0,1,1-3.35-.93A2.49,2.49,0,0,1,172.66,342.42Z"/>
            </g>
            <g>
              <path class="cls-3" d="M131,345.27a17.54,17.54,0,0,0-35.06,0,4.1,4.1,0,0,0,0,.49,4,4,0,0,0,0,.49c.2,2.43,1.91,4.81,5.13,6.68,6.84,3.95,18,3.95,24.81,0,3.21-1.87,4.92-4.25,5.12-6.68,0-.17,0-.32,0-.49S131,345.44,131,345.27Z"/>
              <path class="cls-5" d="M131,345.27a17.54,17.54,0,0,0-35.06,0,4.1,4.1,0,0,0,0,.49,4,4,0,0,0,0,.49c.2,2.43,1.91,4.81,5.13,6.68,6.84,3.95,18,3.95,24.81,0,3.21-1.87,4.92-4.25,5.12-6.68,0-.17,0-.32,0-.49S131,345.44,131,345.27Z"/>
              <path class="cls-6" d="M121,330h0a17.51,17.51,0,0,0-25.14,15.3,4.1,4.1,0,0,0,0,.49,4,4,0,0,0,0,.49c.2,2.43,1.91,4.81,5.13,6.68a23.42,23.42,0,0,0,8.8,2.74c-4.55-.78-7.5-5.86-6.1-11.47C105.36,337.69,111.93,328.29,121,330Z"/>
              <path class="cls-7" d="M131,346.25c0-.17,0-.32,0-.49s0-.32,0-.49a17.48,17.48,0,0,0-6-12.67c1.9,2,6.14,9.34,1.53,15-3,3.7-17.4,9-29.23,2.2a12.28,12.28,0,0,0,3.72,3.16c6.84,3.95,18,3.95,24.81,0C129.05,351.06,130.76,348.68,131,346.25Z"/>
              <path class="cls-6" d="M113.25,332.17c.79,1.79-.72,4.18-3.37,5.34s-5.42.66-6.21-1.13.72-4.18,3.37-5.34S112.47,330.38,113.25,332.17Z"/>
              <path class="cls-6" d="M103.09,339.45a2.3,2.3,0,1,1-2.8-.78A2.07,2.07,0,0,1,103.09,339.45Z"/>
            </g>
            <g>
              <path class="cls-3" d="M160.1,348.91a15.4,15.4,0,0,0-30.78,0c0,.14,0,.28,0,.43s0,.28,0,.42c.18,2.14,1.68,4.23,4.5,5.86,6,3.47,15.77,3.47,21.79,0,2.81-1.63,4.31-3.72,4.49-5.86,0-.14,0-.28,0-.42S160.11,349.05,160.1,348.91Z"/>
              <path class="cls-5" d="M160.1,348.91a15.4,15.4,0,0,0-30.78,0c0,.14,0,.28,0,.43s0,.28,0,.42c.18,2.14,1.68,4.23,4.5,5.86,6,3.47,15.77,3.47,21.79,0,2.81-1.63,4.31-3.72,4.49-5.86,0-.14,0-.28,0-.42S160.11,349.05,160.1,348.91Z"/>
              <path class="cls-6" d="M151.39,335.47h0a15.37,15.37,0,0,0-22.07,13.44c0,.14,0,.28,0,.43s0,.28,0,.42c.18,2.14,1.68,4.23,4.5,5.86a20.51,20.51,0,0,0,7.73,2.41c-4-.69-6.58-5.15-5.35-10.07C137.62,342.25,143.4,334,151.39,335.47Z"/>
              <path class="cls-7" d="M160.1,349.76c0-.14,0-.28,0-.42s0-.29,0-.43a15.34,15.34,0,0,0-5.23-11.13c1.67,1.72,5.39,8.2,1.35,13.14-2.66,3.25-15.28,7.89-25.66,1.93a10.74,10.74,0,0,0,3.26,2.77c6,3.47,15.77,3.47,21.79,0C158.42,354,159.92,351.9,160.1,349.76Z"/>
              <path class="cls-6" d="M144.55,337.4c.69,1.57-.63,3.67-3,4.69s-4.77.58-5.46-1,.64-3.67,3-4.69S143.86,335.84,144.55,337.4Z"/>
              <path class="cls-6" d="M135.64,343.79a1.84,1.84,0,0,1-1.17,2.28,1.65,1.65,0,1,1,1.17-2.28Z"/>
            </g>
            <g>
              <path class="cls-3" d="M264.66,333.94a7.41,7.41,0,0,0-14.82,0v.42a3.84,3.84,0,0,0,2.17,2.82,11.61,11.61,0,0,0,10.49,0,3.85,3.85,0,0,0,2.16-2.82,2.21,2.21,0,0,0,0-.42Z"/>
              <path class="cls-13" d="M264.66,333.94a7.41,7.41,0,0,0-14.82,0v.42a3.84,3.84,0,0,0,2.17,2.82,11.61,11.61,0,0,0,10.49,0,3.85,3.85,0,0,0,2.16-2.82,2.21,2.21,0,0,0,0-.42Z"/>
              <path class="cls-8" d="M260.47,327.48h0a7.41,7.41,0,0,0-10.63,6.46v.42a3.84,3.84,0,0,0,2.17,2.82,10,10,0,0,0,3.72,1.16c-1.92-.34-3.17-2.48-2.58-4.85C253.84,330.74,256.62,326.77,260.47,327.48Z"/>
              <path class="cls-14" d="M264.66,334.36a2.21,2.21,0,0,0,0-.42,7.36,7.36,0,0,0-2.52-5.35c.81.83,2.6,4,.65,6.32-1.28,1.57-7.35,3.8-12.35.93a5.05,5.05,0,0,0,1.57,1.34,11.61,11.61,0,0,0,10.49,0A3.85,3.85,0,0,0,264.66,334.36Z"/>
              <path class="cls-6" d="M257.18,328.41c.33.75-.31,1.76-1.43,2.25s-2.29.28-2.62-.48.3-1.76,1.42-2.25S256.84,327.65,257.18,328.41Z"/>
              <path class="cls-6" d="M252.88,331.48a1,1,0,0,1-1.74.77.87.87,0,0,1,.56-1.1A.88.88,0,0,1,252.88,331.48Z"/>
            </g>
            <g>
              <path class="cls-3" d="M10.38,324.82a12.26,12.26,0,0,1,24.52,0c0,.12,0,.22,0,.34s0,.23,0,.34c-.14,1.7-1.33,3.37-3.59,4.67-4.78,2.77-12.55,2.77-17.35,0-2.24-1.3-3.44-3-3.58-4.67,0-.11,0-.22,0-.34S10.37,324.94,10.38,324.82Z"/>
              <path class="cls-10" d="M10.38,324.82a12.26,12.26,0,0,1,24.52,0c0,.12,0,.22,0,.34s0,.23,0,.34c-.14,1.7-1.33,3.37-3.59,4.67-4.78,2.77-12.55,2.77-17.35,0-2.24-1.3-3.44-3-3.58-4.67,0-.11,0-.22,0-.34S10.37,324.94,10.38,324.82Z"/>
              <path class="cls-8" d="M17.32,314.12h0a12.24,12.24,0,0,1,17.58,10.7c0,.12,0,.22,0,.34s0,.23,0,.34c-.14,1.7-1.33,3.37-3.59,4.67a16.21,16.21,0,0,1-6.15,1.92c3.18-.55,5.24-4.1,4.26-8C28.29,319.52,23.69,312.94,17.32,314.12Z"/>
              <path class="cls-11" d="M10.38,325.5c0-.11,0-.22,0-.34s0-.22,0-.34A12.17,12.17,0,0,1,14.55,316c-1.34,1.37-4.3,6.53-1.08,10.47,2.12,2.58,12.17,6.28,20.45,1.53a8.6,8.6,0,0,1-2.61,2.21c-4.78,2.77-12.55,2.77-17.35,0C11.72,328.87,10.52,327.2,10.38,325.5Z"/>
              <path class="cls-6" d="M22.77,315.66c-.55,1.25.5,2.92,2.35,3.73s3.8.46,4.35-.79-.51-2.92-2.36-3.74S23.32,314.41,22.77,315.66Z"/>
              <path class="cls-6" d="M29.87,320.74a1.47,1.47,0,0,0,.93,1.82,1.31,1.31,0,1,0,1-2.36A1.47,1.47,0,0,0,29.87,320.74Z"/>
            </g>
            <g>
              <path class="cls-3" d="M36.68,329.5a17.79,17.79,0,0,1,35.57,0c0,.17,0,.33,0,.5s0,.32,0,.49C72,333,70.31,335.37,67,337.26c-6.94,4-18.22,4-25.17,0-3.25-1.89-5-4.31-5.19-6.77a4,4,0,0,1,0-.49A4.18,4.18,0,0,1,36.68,329.5Z"/>
              <path class="cls-9" d="M36.68,329.5a17.79,17.79,0,0,1,35.57,0c0,.17,0,.33,0,.5s0,.32,0,.49C72,333,70.31,335.37,67,337.26c-6.94,4-18.22,4-25.17,0-3.25-1.89-5-4.31-5.19-6.77a4,4,0,0,1,0-.49A4.18,4.18,0,0,1,36.68,329.5Z"/>
              <path class="cls-6" d="M46.74,314h0A17.78,17.78,0,0,1,72.25,329.5c0,.17,0,.33,0,.5s0,.32,0,.49C72,333,70.31,335.37,67,337.26a23.7,23.7,0,0,1-8.93,2.79c4.62-.8,7.61-5.95,6.19-11.64C62.65,321.81,56,312.27,46.74,314Z"/>
              <path class="cls-7" d="M36.68,330.49a4,4,0,0,1,0-.49,4.18,4.18,0,0,1,0-.5,17.67,17.67,0,0,1,6-12.85c-1.93,2-6.23,9.47-1.56,15.18,3.07,3.76,17.65,9.11,29.66,2.23a12.37,12.37,0,0,1-3.78,3.2c-6.94,4-18.22,4-25.17,0C38.62,335.37,36.88,333,36.68,330.49Z"/>
              <path class="cls-8" d="M54.64,316.21c-.79,1.81.74,4.24,3.42,5.42s5.5.66,6.3-1.15-.73-4.24-3.42-5.42S55.44,314.4,54.64,316.21Z"/>
              <path class="cls-8" d="M65,323.59a2.34,2.34,0,1,0,2.85-.79A2.11,2.11,0,0,0,65,323.59Z"/>
            </g>
            <g>
              <path class="cls-3" d="M21,339.94a16.89,16.89,0,0,1,33.76,0,5.53,5.53,0,0,1,0,.94c-.19,2.34-1.84,4.63-4.94,6.43-6.59,3.81-17.29,3.81-23.9,0-3.08-1.8-4.73-4.09-4.92-6.43a5.53,5.53,0,0,1,0-.94Z"/>
              <path class="cls-12" d="M21,339.94a16.89,16.89,0,0,1,33.76,0,5.53,5.53,0,0,1,0,.94c-.19,2.34-1.84,4.63-4.94,6.43-6.59,3.81-17.29,3.81-23.9,0-3.08-1.8-4.73-4.09-4.92-6.43a5.53,5.53,0,0,1,0-.94Z"/>
              <path class="cls-8" d="M30.57,325.2h0a16.88,16.88,0,0,1,24.21,14.74,5.53,5.53,0,0,1,0,.94c-.19,2.34-1.84,4.63-4.94,6.43A22.45,22.45,0,0,1,41.37,350c4.38-.75,7.21-5.64,5.87-11.05C45.67,332.64,39.34,323.58,30.57,325.2Z"/>
              <path class="cls-15" d="M21,340.88a5.53,5.53,0,0,1,0-.94,16.75,16.75,0,0,1,5.73-12.2c-1.83,1.88-5.91,9-1.48,14.41,2.92,3.57,16.76,8.65,28.15,2.12a11.73,11.73,0,0,1-3.58,3c-6.59,3.81-17.29,3.81-23.9,0C22.86,345.51,21.21,343.22,21,340.88Z"/>
              <path class="cls-6" d="M38.07,327.32c-.75,1.72.7,4,3.25,5.15s5.22.63,6-1.1-.7-4-3.25-5.14S38.83,325.6,38.07,327.32Z"/>
              <path class="cls-6" d="M47.85,334.33a2.22,2.22,0,1,0,2.71-.75A2,2,0,0,0,47.85,334.33Z"/>
            </g>
            <g>
              <path class="cls-3" d="M56.84,347.35a21,21,0,0,1,41.9,0,5.82,5.82,0,0,1,0,.59,5.62,5.62,0,0,1,0,.58c-.23,2.9-2.28,5.75-6.13,8-8.17,4.72-21.46,4.72-29.66,0-3.83-2.23-5.87-5.08-6.11-8a5.62,5.62,0,0,1,0-.58A5.82,5.82,0,0,1,56.84,347.35Z"/>
              <path class="cls-5" d="M56.84,347.35a21,21,0,0,1,41.9,0,5.82,5.82,0,0,1,0,.59,5.62,5.62,0,0,1,0,.58c-.23,2.9-2.28,5.75-6.13,8-8.17,4.72-21.46,4.72-29.66,0-3.83-2.23-5.87-5.08-6.11-8a5.62,5.62,0,0,1,0-.58A5.82,5.82,0,0,1,56.84,347.35Z"/>
              <path class="cls-6" d="M68.7,329.06h0a20.93,20.93,0,0,1,30,18.29,5.82,5.82,0,0,1,0,.59,5.62,5.62,0,0,1,0,.58c-.23,2.9-2.28,5.75-6.13,8a28.12,28.12,0,0,1-10.51,3.28c5.43-.94,9-7,7.28-13.72C87.44,338.29,79.58,327.05,68.7,329.06Z"/>
              <path class="cls-7" d="M56.84,348.52a5.62,5.62,0,0,1,0-.58,5.82,5.82,0,0,1,0-.59A20.85,20.85,0,0,1,64,332.21c-2.28,2.34-7.35,11.16-1.84,17.89,3.62,4.42,20.8,10.73,34.94,2.62a14.55,14.55,0,0,1-4.45,3.78c-8.17,4.72-21.46,4.72-29.66,0C59.12,354.27,57.08,351.42,56.84,348.52Z"/>
              <path class="cls-6" d="M78,331.69c-.94,2.14.86,5,4,6.38s6.49.79,7.43-1.35-.87-5-4-6.38S78.94,329.56,78,331.69Z"/>
              <path class="cls-6" d="M90.15,340.39a2.75,2.75,0,1,0,3.35-.93A2.49,2.49,0,0,0,90.15,340.39Z"/>
            </g>
            <g>
              <path class="cls-3" d="M169.16,361.22a19.14,19.14,0,0,0-38.26,0c0,.18,0,.35,0,.53s0,.35,0,.54c.22,2.65,2.09,5.24,5.6,7.28,7.47,4.31,19.59,4.31,27.08,0,3.49-2,5.36-4.63,5.58-7.28,0-.19,0-.35,0-.54S169.17,361.4,169.16,361.22Z"/>
              <path class="cls-4" d="M169.16,361.22a19.14,19.14,0,0,0-38.26,0c0,.18,0,.35,0,.53s0,.35,0,.54c.22,2.65,2.09,5.24,5.6,7.28,7.47,4.31,19.59,4.31,27.08,0,3.49-2,5.36-4.63,5.58-7.28,0-.19,0-.35,0-.54S169.17,361.4,169.16,361.22Z"/>
              <path class="cls-8" d="M158.33,344.52h0a19.11,19.11,0,0,0-27.43,16.7c0,.18,0,.35,0,.53s0,.35,0,.54c.22,2.65,2.09,5.24,5.6,7.28a25.51,25.51,0,0,0,9.6,3c-5-.85-8.18-6.4-6.65-12.52C141.22,353,148.4,342.69,158.33,344.52Z"/>
              <path class="cls-7" d="M169.16,362.29c0-.19,0-.35,0-.54s0-.35,0-.53a19.09,19.09,0,0,0-6.5-13.83c2.08,2.14,6.7,10.2,1.68,16.34-3.3,4-19,9.8-31.9,2.39a13.37,13.37,0,0,0,4.06,3.45c7.47,4.31,19.59,4.31,27.08,0C167.07,367.53,168.94,364.94,169.16,362.29Z"/>
              <path class="cls-8" d="M149.84,346.92c.85,1.95-.79,4.56-3.68,5.83s-5.92.71-6.78-1.24.79-4.56,3.68-5.82S149,345,149.84,346.92Z"/>
              <path class="cls-8" d="M138.75,354.86a2.51,2.51,0,1,1-3.06-.85A2.27,2.27,0,0,1,138.75,354.86Z"/>
            </g>
            <g>
              <path class="cls-3" d="M89.26,363.3a18.2,18.2,0,0,1,36.39,0c0,.17,0,.33,0,.51s0,.33,0,.5c-.21,2.52-2,5-5.33,6.93-7.1,4.1-18.63,4.1-25.75,0-3.33-1.94-5.1-4.41-5.31-6.93,0-.17,0-.33,0-.5S89.25,363.47,89.26,363.3Z"/>
              <path class="cls-4" d="M89.26,363.3a18.2,18.2,0,0,1,36.39,0c0,.17,0,.33,0,.51s0,.33,0,.5c-.21,2.52-2,5-5.33,6.93-7.1,4.1-18.63,4.1-25.75,0-3.33-1.94-5.1-4.41-5.31-6.93,0-.17,0-.33,0-.5S89.25,363.47,89.26,363.3Z"/>
              <path class="cls-8" d="M99.56,347.42h0a18,18,0,0,1,7.89-1.82,18.2,18.2,0,0,1,18.2,17.7c0,.17,0,.33,0,.51s0,.33,0,.5c-.21,2.52-2,5-5.33,6.93a24.28,24.28,0,0,1-9.13,2.85c4.72-.82,7.78-6.09,6.33-11.91C115.83,355.43,109,345.67,99.56,347.42Z"/>
              <path class="cls-7" d="M89.26,364.31c0-.17,0-.33,0-.5s0-.34,0-.51a18.13,18.13,0,0,1,6.18-13.15c-2,2-6.37,9.69-1.6,15.53C97,369.52,111.91,375,124.18,368a12.68,12.68,0,0,1-3.86,3.28c-7.1,4.1-18.63,4.1-25.75,0C91.24,369.3,89.47,366.83,89.26,364.31Z"/>
              <path class="cls-8" d="M107.64,349.7c-.82,1.86.75,4.34,3.49,5.54s5.64.68,6.45-1.17-.75-4.34-3.5-5.54S108.45,347.85,107.64,349.7Z"/>
              <path class="cls-8" d="M118.18,357.25a2.39,2.39,0,1,0,2.91-.81A2.16,2.16,0,0,0,118.18,357.25Z"/>
            </g>
            <g>
              <path class="cls-3" d="M136.47,369.66a7.41,7.41,0,0,0-14.82,0v.41a3.81,3.81,0,0,0,2.17,2.82,11.61,11.61,0,0,0,10.49,0,3.82,3.82,0,0,0,2.16-2.82v-.41Z"/>
              <path class="cls-4" d="M136.47,369.66a7.41,7.41,0,0,0-14.82,0v.41a3.81,3.81,0,0,0,2.17,2.82,11.61,11.61,0,0,0,10.49,0,3.82,3.82,0,0,0,2.16-2.82v-.41Z"/>
              <path class="cls-16" d="M132.28,363.19h0a7.41,7.41,0,0,0-10.63,6.47v.41a3.81,3.81,0,0,0,2.17,2.82,9.84,9.84,0,0,0,3.72,1.16c-1.92-.33-3.17-2.47-2.58-4.84C125.65,366.46,128.43,362.48,132.28,363.19Z"/>
              <path class="cls-7" d="M136.47,370.07v-.41a7.35,7.35,0,0,0-2.52-5.35c.81.82,2.6,3.94.65,6.32-1.28,1.57-7.35,3.8-12.35.93a5,5,0,0,0,1.57,1.33,11.61,11.61,0,0,0,10.49,0A3.82,3.82,0,0,0,136.47,370.07Z"/>
              <path class="cls-8" d="M129,364.12c.34.76-.3,1.77-1.42,2.26s-2.29.28-2.62-.48.3-1.76,1.42-2.26S128.65,363.37,129,364.12Z"/>
              <path class="cls-8" d="M124.69,367.2a.88.88,0,0,1-.56,1.09.79.79,0,1,1,.56-1.09Z"/>
            </g>
            <g>
              <path class="cls-3" d="M0,327.69a7.41,7.41,0,0,1,14.81,0,1.48,1.48,0,0,1,0,.21,1.55,1.55,0,0,1,0,.21,3.8,3.8,0,0,1-2.17,2.82,11.59,11.59,0,0,1-10.48,0A3.8,3.8,0,0,1,0,328.11a1.55,1.55,0,0,1,0-.21A1.48,1.48,0,0,1,0,327.69Z"/>
              <path class="cls-13" d="M0,327.69a7.41,7.41,0,0,1,14.81,0,1.48,1.48,0,0,1,0,.21,1.55,1.55,0,0,1,0,.21,3.8,3.8,0,0,1-2.17,2.82,11.59,11.59,0,0,1-10.48,0A3.8,3.8,0,0,1,0,328.11a1.55,1.55,0,0,1,0-.21A1.48,1.48,0,0,1,0,327.69Z"/>
              <path class="cls-8" d="M4.2,321.23h0a7.38,7.38,0,0,1,10.62,6.46,1.48,1.48,0,0,1,0,.21,1.55,1.55,0,0,1,0,.21,3.8,3.8,0,0,1-2.17,2.82,9.91,9.91,0,0,1-3.71,1.16c1.92-.34,3.16-2.48,2.57-4.85C10.83,324.49,8.05,320.51,4.2,321.23Z"/>
              <path class="cls-14" d="M0,328.11a1.55,1.55,0,0,1,0-.21,1.48,1.48,0,0,1,0-.21,7.35,7.35,0,0,1,2.51-5.35c-.8.83-2.59,4-.65,6.32,1.28,1.57,7.36,3.8,12.36.93a5.24,5.24,0,0,1-1.58,1.34,11.59,11.59,0,0,1-10.48,0A3.8,3.8,0,0,1,0,328.11Z"/>
              <path class="cls-6" d="M7.49,322.16c-.33.75.31,1.76,1.42,2.25s2.3.28,2.63-.48-.31-1.76-1.43-2.25S7.82,321.4,7.49,322.16Z"/>
              <path class="cls-6" d="M11.78,325.23a.89.89,0,0,0,.56,1.1A.8.8,0,1,0,13,324.9.89.89,0,0,0,11.78,325.23Z"/>
            </g>
          </g>
          <g class="move">
            <path class="cls-17" d="M152.75,197.86l4.06-49.25,16.37,9.45c7.86,4.54,11.38,16.16,10.08,33.32L181.19,219l-4.42-15.28c-2.4-8.33-8.52-11.2-17.35-8.14Z"/>
            <path class="cls-17" d="M104,197.86,100,148.61l-16.37,9.45c-7.86,4.54-11.38,16.16-10.08,33.32L75.57,219,80,203.69c2.41-8.33,8.53-11.2,17.36-8.14Z"/>
            <g>
              <path class="cls-18" d="M152.58,221.69h0l-3.08-13.57H107.27l-3.08,13.57h0c-.81,4.1,1.5,8.37,7,11.53,9.51,5.49,24.94,5.49,34.45,0C151.07,230.06,153.38,225.79,152.58,221.69Z"/>
              <ellipse class="cls-19" cx="128.39" cy="209.78" rx="21.32" ry="12.31"/>
              <g>
                <path class="cls-17" d="M104.21,221.69c-.81,4.1,1.5,8.37,7,11.53,9.51,5.49,24.94,5.49,34.45,0,5.45-3.16,7.76-7.43,7-11.53l-.86-3.89c.85,3.72-1.26,7.71-6.34,10.64-9.38,5.42-24.59,5.42-34,0-5.06-2.92-7.18-6.89-6.35-10.6Z"/>
                <path class="cls-17" d="M106.12,213.15c-.83,3.66,1.21,7.53,6.13,10.38,8.92,5.14,23.37,5.14,32.29,0,4.9-2.83,6.94-6.69,6.14-10.32l-1.16-5.09c.87,3.68-1.15,7.54-6.05,10.37-8.32,4.81-21.83,4.81-30.15,0-4.9-2.83-6.92-6.69-6-10.37Z"/>
                <path class="cls-20" d="M144.18,208.12H141c1,4.58,3.85,16.85,4.22,19.64.45,3.46-7.2,9.27-27.32,8.19,9,2.5,20.22,1.6,27.73-2.73a17.06,17.06,0,0,0,4.91-4.09Z"/>
              </g>
              <ellipse class="cls-19" cx="128.39" cy="209.78" rx="21.32" ry="12.31"/>
            </g>
            <g>
              <path class="cls-3" d="M170.87,109.81c0-52.61-22.23-98.08-38.75-108.6a4.3,4.3,0,0,0-.45-.29l-.08-.06h0a6.36,6.36,0,0,0-6.39,0h0l-.08.06a4.17,4.17,0,0,0-.44.29c-16.53,10.52-38.75,56-38.75,108.6,0,50.62,14.19,95.49,15.54,99.66,0,.1.07.21.11.31h0c1,2.94,3.51,5.75,7.46,8,10.7,6.17,28,6.17,38.72,0,4.1-2.36,6.62-5.29,7.58-8.35C156.68,205.29,170.87,160.42,170.87,109.81Z"/>
              <path class="cls-19" d="M144.21,13.85C140.11,8,136,3.64,132.12,1.2l-.44-.29L131.6.86h0a6.36,6.36,0,0,0-6.39,0h0l-.08.05-.44.29c-3.84,2.45-8,6.78-12.1,12.66a106.91,106.91,0,0,0-7.08,11.8c.72,2.72,2.89,5.33,6.52,7.42,9,5.23,23.72,5.23,32.77,0,3.62-2.09,5.8-4.7,6.52-7.42A106.16,106.16,0,0,0,144.21,13.85Z"/>
              <path class="cls-21" d="M85.92,109.81c0,50.62,14.19,95.49,15.54,99.66,0,.1.07.21.11.31h0c1,2.94,3.51,5.75,7.46,8a31.1,31.1,0,0,0,6,2.59c-6.92-24.88-15-67.14-15-109.31,0-58.29,14.36-99.6,24.73-109.88C108.14,11.73,85.92,57.2,85.92,109.81Z"/>
              <path class="cls-22" d="M170.87,109.81c0,50.62-14.19,95.49-15.54,99.66,0,.1-.07.21-.11.31h0c-1,2.94-3.52,5.75-7.47,8,8-29.33,17.19-64.55,17.19-106.72,0-58.29-22.45-99.6-32.82-109.88C148.64,11.73,170.87,57.2,170.87,109.81Z"/>
            </g>
            <g>
              <path class="cls-19" d="M176.24,184l-15.36-28.34L156.81,158l-7.06,44.56,6.67,5.39a49.76,49.76,0,0,1,17.35,28.18l4.42,20.37s1.93-13,4.06-28.63C184.15,213.81,184.1,197.6,176.24,184Z"/>
              <path class="cls-18" d="M149.75,202.55,156.81,158l15.37,28.35c7.86,13.61,9.38,29.3,8.08,45l-2.07,25.19-4.42-20.37a49.76,49.76,0,0,0-17.35-28.18Z"/>
            </g>
            <g>
              <path class="cls-19" d="M80.52,184l15.36-28.34L99.94,158,107,202.55l-6.67,5.39A49.82,49.82,0,0,0,83,236.12l-4.41,20.37s-1.94-13-4.06-28.63C72.61,213.81,72.66,197.6,80.52,184Z"/>
              <path class="cls-18" d="M107,202.55,99.94,158,84.58,186.34c-7.86,13.61-9.38,29.3-8.09,45l2.08,25.19L83,236.12a49.82,49.82,0,0,1,17.36-28.18Z"/>
            </g>
            <g>
              <circle class="cls-18" cx="128.39" cy="81.77" r="18.61" transform="translate(36.31 202.98) rotate(-85.27)"/>
              <circle class="cls-3" cx="128.39" cy="81.77" r="14.79"/>
              <circle class="cls-9" cx="128.39" cy="81.77" r="14.79"/>
            </g>
            <g>
              <path class="cls-18" d="M141.66,126.36a13.27,13.27,0,1,1-13.27-13.27A13.27,13.27,0,0,1,141.66,126.36Z"/>
              <circle class="cls-3" cx="128.39" cy="126.36" r="9.65" transform="translate(-24.08 222.29) rotate(-76.72)"/>
              <circle class="cls-9" cx="128.39" cy="126.36" r="9.65" transform="translate(-24.08 222.29) rotate(-76.72)"/>
            </g>
          </g>
        </g>
        <g id="Shine">
          <path class="cls-3 shine-1" d="M70.43,61.81a.61.61,0,0,1-.64.54l-.59,0A3.1,3.1,0,0,0,66,64.85l-.12.58a.61.61,0,0,1-1.21-.14l0-.6h0a3.1,3.1,0,0,0-2.52-3.2l-.58-.11a.62.62,0,0,1-.49-.68h0a.6.6,0,0,1,.63-.54l.6,0a3.11,3.11,0,0,0,3.2-2.51l.11-.59a.62.62,0,0,1,1.22.15l0,.59A3.12,3.12,0,0,0,69.35,61l.59.12a.61.61,0,0,1,.49.67Zm-4.86,1a4.32,4.32,0,0,1,1.77-1.4A4.28,4.28,0,0,1,66,59.68a4.38,4.38,0,0,1-1.77,1.39A4.25,4.25,0,0,1,65.57,62.84Z"/>
          <path class="cls-3 shine-2" d="M55.6,28.72a3.94,3.94,0,1,1-3.45-4.38A4,4,0,0,1,55.6,28.72ZM49,27.93a2.71,2.71,0,1,0,3-2.37A2.71,2.71,0,0,0,49,27.93Z"/>
          <g class="shine-3">
            <path class="cls-3" d="M85.25,14.6a.62.62,0,0,1-.68.54l-2-.24a.61.61,0,1,1,.15-1.22l2,.24A.62.62,0,0,1,85.25,14.6Z"/>
            <path class="cls-3" d="M86.32,16l-.24,2a.61.61,0,1,1-1.22-.14l.24-2a.61.61,0,1,1,1.22.15Z"/>
            <path class="cls-3" d="M89.84,15.15a.62.62,0,0,1-.68.54l-2-.25a.61.61,0,0,1-.54-.68.62.62,0,0,1,.69-.54l2,.25A.61.61,0,0,1,89.84,15.15Z"/>
            <path class="cls-3" d="M86.87,11.37l-.24,2a.61.61,0,1,1-1.22-.14l.24-2a.61.61,0,0,1,1.22.14Z"/>
          </g>
          <path class="cls-3 shine-4" d="M191.57,61.3h0a.6.6,0,0,1,.34.76l-.19.56h0a3.09,3.09,0,0,0,1.5,3.78l.53.28a.63.63,0,0,1,.28.79.62.62,0,0,1-.77.33l-.56-.19a3.1,3.1,0,0,0-3.79,1.5l-.28.53a.62.62,0,0,1-.78.28.61.61,0,0,1-.34-.77l.19-.56a3.11,3.11,0,0,0-1.5-3.79l-.53-.27a.62.62,0,0,1-.27-.79.61.61,0,0,1,.76-.34l.56.19a3.1,3.1,0,0,0,3.79-1.5l.28-.52A.61.61,0,0,1,191.57,61.3Zm-.38,5a4.3,4.3,0,0,1-.83-2.09,4.3,4.3,0,0,1-2.09.83,4.3,4.3,0,0,1,.83,2.09A4.4,4.4,0,0,1,191.19,66.25Z"/>
          <path class="cls-3 shine-2" d="M177.62,23.35a3.94,3.94,0,1,1-3.57.37A3.91,3.91,0,0,1,177.62,23.35Zm-2.41,6.2a3.31,3.31,0,0,0,.42.12,2.7,2.7,0,1,0-1.71-1.17A2.75,2.75,0,0,0,175.21,29.55Z"/>
          <g class="shine-3">
            <path class="cls-3" d="M209.56,34.66h0l1.9.78a.62.62,0,0,1,.34.8.63.63,0,0,1-.81.33l-1.9-.77a.61.61,0,0,1,.46-1.14Z"/>
            <path class="cls-3" d="M209.66,31.16h0A.62.62,0,0,1,210,32l-.78,1.9a.62.62,0,0,1-.8.33.61.61,0,0,1-.33-.8l.77-1.9A.62.62,0,0,1,209.66,31.16Z"/>
            <path class="cls-3" d="M205.28,32.91h0l1.9.77a.61.61,0,0,1,.33.8.62.62,0,0,1-.8.34l-1.9-.78a.61.61,0,0,1,.46-1.14Z"/>
            <path class="cls-3" d="M207.92,35.44h0a.61.61,0,0,1,.33.8l-.77,1.9a.62.62,0,0,1-1.14-.47l.78-1.9A.61.61,0,0,1,207.92,35.44Z"/>
          </g>
        </g>
      </g>
    </g>
  </g>
</svg>
