<?xml version="1.0" encoding="utf-8"?>
<!-- Generator: Adobe Illustrator 25.2.0, SVG Export Plug-In . SVG Version: 6.00 Build 0)  -->
<svg version="1.1" id="Laag_1" xmlns="http://www.w3.org/2000/svg" xmlns:xlink="http://www.w3.org/1999/xlink" x="0px" y="0px"
	 viewBox="0 0 933 121" style="enable-background:new 0 0 933 121;" xml:space="preserve">
<style type="text/css">
	.st0{fill:none;}
	.st1{fill:#FFFFFF;}
</style>
<path class="st0" d="z"/>
<path class="st1" d="M83.6,69.2H21.8V53.9h79.7c-2.1-6.5-8.8-12.5-20.7-12.5H23c-13.2,0-20.9,4.9-20.9,15.6v11.4
	c0,9.3,7.9,14.6,19.5,14.6h62.5v16.3H0c2.1,8.8,8.8,13.5,20.9,13.5h62.9c13.2,0,19.7-5.1,19.7-16V85.2
	C103.6,75.2,95.9,69.9,83.6,69.2z M209.7,41.6h-76.2v71.3h21.6V85.5h56.2c15.6,0,24.2-5.3,24.2-17.9v-7.9
	C235.2,48.1,225.5,41.6,209.7,41.6z M216.7,64.3c0,5.1-0.9,7.9-9.3,7.9h-52.2l0.2-18.6h51.1c9.3,0,10.4,2.8,10.4,7.7v3L216.7,64.3z
	 M307.2,85h-46l-11.4,12.1h66.4l11.4,15.8h25.5l-55-74.3l-13,16L307.2,85z M394.5,53.9h80.8c-2.1-8.4-10.2-12.5-21.8-12.5h-60.4
	c-10.4,0-20.4,4.2-20.4,15.6v39.9c0,11.4,10,15.6,20.4,15.6h61.1c13.9,0,18.8-3.9,21.1-13.5h-80.8L394.5,53.9z M570.1,77.6V65.5
	h-65.3v47.4h96.4V99.4h-74.5V77.6L570.1,77.6z M507.2,41.6h97.3v12.5h-97.3V41.6z M664.4,41.6h-33.9l39.9,29.3
	c5.8-3.9,12.5-8.1,18.6-11.6L664.4,41.6z M713.6,78c-5.8,3.9-11.6,8.4-17.2,12.5l30.2,22.1h34.1L713.6,78z"/>
<path class="st1" d="M923.1,0c-185.8,10.7-271.7,90.1-291,108.9l-3.9,3.7h34.4C755.4,19.5,888.9,3,923.1,0z"/>
<path class="st0" d="z"/>
</svg>
